<svg width="142" height="153" viewBox="0 0 142 153" fill="none" xmlns="http://www.w3.org/2000/svg">
<path d="M8 153H6.82495C5.92535 147.796 3.4817 143.155 0 139.637V138C4.12662 141.81 7.00874 147.063 8 153Z" fill="#DDDEDB"/>
<path d="M15 153H13.7724C12.4969 143.962 7.31943 136.184 0 131.449V130C7.99395 134.927 13.6762 143.287 15 153Z" fill="#DDDEDB"/>
<path d="M22 153H20.7496C19.2528 139.995 11.2086 128.982 0 123.376V122C11.8947 127.727 20.4551 139.308 22 153Z" fill="#DDDEDB"/>
<path d="M29 153H27.7617C26.1026 136.377 15.1065 122.435 0 116.316V115C15.7759 121.19 27.316 135.693 29 153Z" fill="#DDDEDB"/>
<path d="M35 153H33.788C32.067 132.703 18.4695 115.765 0 109.266V108C19.1242 114.547 33.279 132.021 35 153Z" fill="#DDDEDB"/>
<path d="M42 153H40.801C38.9913 129.008 22.3329 109.062 0 102.243V101C23.0422 107.844 40.1894 128.329 42 153Z" fill="#DDDEDB"/>
<path d="M48 153H46.7945C44.9626 125.268 25.6995 102.316 0 95.2681V94C26.3507 101.073 46.1681 124.61 48 153Z" fill="#DDDEDB"/>
<path d="M55 153H53.7853C51.8901 121.528 29.5648 95.5288 0 88.2708V87C30.2204 94.3064 53.0809 120.843 55 153Z" fill="#DDDEDB"/>
<path d="M62 153H60.7785C58.8242 118.257 33.4187 89.5769 0 82.2319V81C34.1025 88.3695 60.0211 117.58 62 153Z" fill="#DDDEDB"/>
<path d="M68 153H66.7904C64.8313 114.494 36.7699 82.7491 0 75.2369V74C37.4228 81.5368 66.016 113.815 68 153Z" fill="#DDDEDB"/>
<path d="M75 153H73.7602C71.7651 110.682 40.6131 75.8773 0 68.2166V67C41.2694 74.6607 72.9573 109.999 75 153Z" fill="#DDDEDB"/>
<path d="M82 153H80.7786C78.7263 106.915 44.4807 68.9982 0 61.2433V60C45.1649 67.7784 79.9481 106.207 82 153Z" fill="#DDDEDB"/>
<path d="M88 153H86.7875C84.7262 103.596 47.8194 63.027 0 55.2096V54C48.4738 61.7928 85.9388 102.919 88 153Z" fill="#DDDEDB"/>
<path d="M95 153H93.7826C91.7131 99.7815 51.6875 56.1296 0 48.2145V47C52.3446 54.9151 92.9305 99.1029 95 153Z" fill="#DDDEDB"/>
<path d="M102 153H100.778C98.6771 95.988 55.5564 49.2255 0 41.2412V40C56.2158 48.0091 99.8982 95.3077 102 153Z" fill="#DDDEDB"/>
<path d="M108 153H106.786C104.696 92.1703 58.8696 42.3217 0 34.2441V33C59.549 41.1012 105.911 91.5115 108 153Z" fill="#DDDEDB"/>
<path d="M115 153H113.758C111.638 88.8361 62.7252 36.2959 0 28.214V27C63.3826 35.0819 112.856 88.181 115 153Z" fill="#DDDEDB"/>
<path d="M122 153H120.778C118.628 85.0276 66.583 29.3658 0 21.2157V20C67.2915 28.1723 119.85 84.3709 122 153Z" fill="#DDDEDB"/>
<path d="M128 153H126.785C124.645 81.1839 69.9065 22.4377 0 14.2447V13C70.587 21.2192 125.861 80.5256 128 153Z" fill="#DDDEDB"/>
<path d="M135 153H133.781C131.613 77.8885 73.7758 16.4391 0 8.23741V7C74.4341 15.2264 132.855 77.2334 135 153Z" fill="#DDDEDB"/>
<path d="M142 153H140.754C138.579 74.0671 77.6213 9.48685 0 1.21678V-1.52588e-05C78.3057 8.27005 139.802 73.387 142 153Z" fill="#DDDEDB"/>
</svg>
