<svg width="13" height="16" viewBox="0 0 13 16" fill="none" xmlns="http://www.w3.org/2000/svg">
<path d="M11.103 1.98217C9.88326 0.713009 8.22894 -1.33728e-08 6.50398 0C4.77902 1.33728e-08 3.1247 0.713009 1.90497 1.98217C0.685239 3.25133 1.2852e-08 4.97269 0 6.76756C-1.2852e-08 8.56243 0.685239 10.2838 1.90497 11.5529L5.94443 15.7641C6.01569 15.8388 6.10047 15.8982 6.19387 15.9387C6.28728 15.9792 6.38746 16 6.48865 16C6.58984 16 6.69002 15.9792 6.78343 15.9387C6.87683 15.8982 6.96161 15.8388 7.03287 15.7641L11.103 11.5131C12.3176 10.2492 13 8.535 13 6.74762C13 4.96023 12.3176 3.24605 11.103 1.98217ZM10.0069 10.3725L6.50398 14.0334L3.00107 10.3725C2.30903 9.6518 1.83788 8.73375 1.64719 7.73444C1.4565 6.73512 1.55483 5.69942 1.92973 4.75824C2.30464 3.81706 2.9393 3.01266 3.75349 2.44673C4.56768 1.8808 5.52484 1.57875 6.50398 1.57875C7.48312 1.57875 8.44028 1.8808 9.25447 2.44673C10.0687 3.01266 10.7033 3.81706 11.0782 4.75824C11.4531 5.69942 11.5515 6.73512 11.3608 7.73444C11.1701 8.73375 10.6989 9.6518 10.0069 10.3725ZM4.20448 4.31904C3.58569 4.96488 3.23822 5.83964 3.23822 6.75161C3.23822 7.66357 3.58569 8.53833 4.20448 9.18418C4.66419 9.66334 5.24967 9.99058 5.88744 10.1248C6.52522 10.2591 7.1869 10.1944 7.78946 9.9388C8.39202 9.68323 8.90864 9.24821 9.27449 8.68829C9.64034 8.12838 9.83913 7.46851 9.84593 6.79148C9.84938 6.33943 9.76569 5.89124 9.59981 5.47342C9.43392 5.0556 9.18921 4.67663 8.88014 4.35891C8.57635 4.03556 8.21411 3.77792 7.81426 3.6008C7.4144 3.42368 6.98484 3.33059 6.55028 3.32689C6.11572 3.32318 5.68474 3.40893 5.28216 3.5792C4.87957 3.74948 4.51332 4.00091 4.20448 4.31904ZM7.79937 8.05164C7.5089 8.35849 7.12501 8.55083 6.71333 8.59578C6.30166 8.64072 5.88776 8.53547 5.54241 8.29803C5.19706 8.06058 4.9417 7.70569 4.81998 7.29402C4.69827 6.88235 4.71776 6.43947 4.87513 6.0411C5.0325 5.64273 5.31797 5.31361 5.68274 5.11001C6.04751 4.90641 6.46891 4.84097 6.87492 4.92488C7.28092 5.00879 7.64631 5.23684 7.9086 5.57004C8.1709 5.90324 8.31382 6.3209 8.31292 6.75161C8.30177 7.24392 8.10328 7.7115 7.76104 8.05164H7.79937Z" fill="black"/>
</svg>
