<svg width="67" height="292" viewBox="0 0 67 292" fill="none" xmlns="http://www.w3.org/2000/svg">
<path opacity="0.7" d="M111 224C82.5112 209.424 63 179.929 63 146.001C63 112.07 82.5112 82.5751 111 68V69.3239C83.1896 83.7819 64.1669 112.72 64.1669 146.001C64.1669 179.279 83.1896 208.218 111 222.676V224Z" fill="#DDDEDB"/>
<path opacity="0.7" d="M111 231C79.1228 215.854 57 183.221 57 145.501C57 107.779 79.1228 75.1449 111 60V61.2824C79.7733 76.3345 58.1606 108.432 58.1606 145.501C58.1606 182.568 79.7733 214.665 111 229.718V231Z" fill="#DDDEDB"/>
<path opacity="0.7" d="M111 238C75.1335 222.53 50 187.109 50 146.001C50 104.891 75.1335 69.4698 111 54V55.2541C75.7899 70.6757 51.1734 105.563 51.1734 146.001C51.1734 186.438 75.7899 221.324 111 236.746V238Z" fill="#DDDEDB"/>
<path opacity="0.7" d="M111 245C71.7558 229.113 44 190.717 44 146.001C44 101.282 71.7558 62.8871 111 47V48.2543C72.4109 64.0723 45.165 101.911 45.165 146.001C45.165 190.089 72.4109 227.928 111 243.744V245Z" fill="#DDDEDB"/>
<path opacity="0.7" d="M111 252C68.3656 235.756 38 194.383 38 146.001C38 97.6179 68.3656 56.2444 111 40V41.2344C69.0176 57.4096 39.1609 98.2717 39.1609 146.001C39.1609 193.73 69.0176 234.592 111 250.767V252Z" fill="#DDDEDB"/>
<path opacity="0.7" d="M111 258C64.4265 241.511 31 197.304 31 145.501C31 93.6951 64.4265 49.4878 111 33V34.2303C65.084 50.6738 32.1706 94.3474 32.1706 145.501C32.1706 196.651 65.084 240.325 111 256.77V258Z" fill="#DDDEDB"/>
<path opacity="0.7" d="M111 265C61.0733 248.189 25 200.965 25 145.501C25 90.0345 61.0733 42.8106 111 26V27.2098C61.7239 43.9747 26.1653 90.6623 26.1653 145.501C26.1653 200.338 61.7239 247.027 111 263.79V265Z" fill="#DDDEDB"/>
<path opacity="0.7" d="M111 272C57.7035 254.997 19 204.951 19 146.001C19 87.0487 57.7035 37.0017 111 20V21.2317C58.3531 38.1878 20.1611 87.7226 20.1611 146.001C20.1611 204.277 58.3531 253.812 111 270.767V272Z" fill="#DDDEDB"/>
<path opacity="0.7" d="M111 278C53.7646 260.805 12 207.904 12 145.501C12 83.0949 53.7646 30.1936 111 13V14.2084C54.4473 31.3812 13.1689 83.7486 13.1689 145.501C13.1689 207.251 54.4473 259.617 111 276.792V278Z" fill="#DDDEDB"/>
<path opacity="0.7" d="M111 285C50.4185 267.547 6 211.613 6 145.501C6 79.3867 50.4185 23.4532 111 6V7.2117C51.0741 24.6428 7.16364 80.0408 7.16364 145.501C7.16364 210.959 51.0741 266.356 111 283.788V285Z" fill="#DDDEDB"/>
<path opacity="0.7" d="M111 292C47.0885 274.366 0 215.606 0 146.001C0 76.3936 47.0885 17.634 111 0V1.21094C47.7381 18.8188 1.15989 77.0448 1.15989 146.001C1.15989 214.954 47.7381 273.18 111 290.788V292Z" fill="#DDDEDB"/>
</svg>
